<svg xmlns="http://www.w3.org/2000/svg" viewBox="0 0 56.65 60.11">
  <defs>
    <style>.cls-1{fill:transparent;}.cls-2{fill:#EAF4F4;}.cls-3{fill:#4d4d4d;}.cls-4{fill:#CCE3DE;}</style>
  </defs>
  <title>Invoice</title>
  <g id="Layer_2" data-name="Layer 2">
    <g id="Layer_1-2" data-name="Layer 1">
      <path class="cls-1"
        d="M24.94,2.27C33.06.78,42.22-1.67,48.2,1.68s8.82,12.5,8.42,21-4,16.33-9.5,23.7S34.3,60.61,27.48,60.08s-13.15-8.48-18-15.35S1.11,32.08.23,25.62,1,12,5.39,8.12,16.82,3.75,24.94,2.27Z" />
      <path class="cls-2"
        d="M34,53.91a.27.27,0,0,1-.18-.08l-3.48-3.64-3.47,3.64a.27.27,0,0,1-.18.08.27.27,0,0,1-.19-.08L23,50.19l-3.47,3.64a.25.25,0,0,1-.18.08.23.23,0,0,1-.18-.08l-3.48-3.64-3.48,3.64a.25.25,0,0,1-.18.08.23.23,0,0,1-.18-.08L8.4,50.19,4.92,53.83a.25.25,0,0,1-.18.08l-.09,0a.25.25,0,0,1-.16-.23v-48a.25.25,0,0,1,.25-.25H41.33a.25.25,0,0,1,.25.25v48a.25.25,0,0,1-.16.23l-.09,0a.25.25,0,0,1-.18-.08l-3.48-3.64L34.2,53.83A.27.27,0,0,1,34,53.91Z" />
      <path class="cls-3"
        d="M41.33,5.62v48l-3.66-3.83h0L34,53.66l-3.66-3.83h0L26.7,53.66,23,49.83h0l-3.65,3.83-3.66-3.83h0l-3.65,3.83L8.4,49.83h0L4.74,53.66v-48H41.33m-36.59,0h0m0,0h0m36.59-.5H4.74a.51.51,0,0,0-.5.5v48a.51.51,0,0,0,.32.46.58.58,0,0,0,.18,0A.48.48,0,0,0,5.1,54l3.3-3.45L11.7,54a.48.48,0,0,0,.36.16h0a.5.5,0,0,0,.36-.16l3.3-3.45L19,54a.48.48,0,0,0,.36.16h0a.52.52,0,0,0,.36-.16L23,50.55,26.33,54a.52.52,0,0,0,.37.16h0a.52.52,0,0,0,.36-.16l3.29-3.45L33.65,54a.52.52,0,0,0,.36.16h0a.52.52,0,0,0,.37-.16l3.29-3.45L41,54a.52.52,0,0,0,.36.16.65.65,0,0,0,.19,0,.5.5,0,0,0,.31-.46v-48a.5.5,0,0,0-.5-.5Z" />
      <rect class="cls-3" x="8.4" y="16.27" width="17.69" height="1.04" rx="0.5" ry="0.5" />
      <rect class="cls-3" x="8.4" y="20.44" width="17.69" height="1.04" rx="0.5" ry="0.5" />
      <rect class="cls-3" x="8.4" y="24.44" width="17.69" height="1.04" rx="0.5" ry="0.5" />
      <rect class="cls-3" x="8.5" y="30.7" width="29" height="1.04" rx="0.5" ry="0.5" />
      <rect class="cls-3" x="25.5" y="34.7" width="12" height="1.04" rx="0.5" ry="0.5" />
      <path class="cls-3"
        d="M37.67,15.54H30.85v1.05H32c1.41,0,2.27.47,2.5,1.41H30.85v.81h3.69c-.11,1.12-1,1.85-2.8,1.85h-.89v1c1.52,1.62,2.71,3,4,4.55h1.56c-1.37-1.67-2.74-3.32-4-4.63,2.08-.07,3.39-1.12,3.55-2.77h1.75V18H35.9a2.37,2.37,0,0,0-.9-1.65h2.67Z" />
      <polygon class="cls-4" points="6.74 5.62 6.74 5.62 4.74 5.62 4.74 53.66 6.74 51.56 6.74 5.62" />
    </g>
  </g>
</svg>